<svg xmlns="http://www.w3.org/2000/svg" xmlns:xlink="http://www.w3.org/1999/xlink">
    <defs>
        <filter id="configurationError" x="0" y="0" width="100%" height="100%" filterUnits="userSpaceOnUse">
            <feGaussianBlur stdDeviation="3" in="SourceAlpha" result="result0"/>
            <feComposite in2="result0" result="result3" operator="arithmetic" in="SourceGraphic" k2="1" k3="10"/>
            <feComposite in2="result3" k2="1" operator="in" in="result3" result="result4"/>
        </filter>

        <symbol id="rotate">
            <g transform="scale(0.15,-0.15) translate(10,-215)">
                <path
                        d="m 40.168705,203.17868 c -9.940214,0 -18.978182,-3.82724 -25.75,-10.075 l -11.225,8.475 3.95,-28.025 28,3.95 -10.9,8.2 c 4.401685,3.41947 9.919574,5.475 15.925,5.475 14.3594,0 26,-11.6406 26,-26 0,-14.3594 -11.6406,-26 -26,-26 -8.18798,0 -15.48418,3.7843 -20.25,9.7 l -8.525,-8.525 c 6.96843,-8.0726 17.27421,-13.175 28.775,-13.175 20.986816,0 38,17.0132 38,38 0,20.9868 -17.013184,38 -38,38 z"
                        style="fill:#000000;fill-opacity:1;fill-rule:evenodd;stroke:none"/>
            </g>
        </symbol>
        <symbol id="move">
            <g transform="scale(0.14,0.14) translate(-210,-110)">
                <path
                        d="m 262.15788,215.18241 -20,-20 14,0 0,-24 -24,0 0,14 -20,-20 20,-20 0,14 24,0 0,-24 -14,0 20,-20 20,20 -14,0 0,24 24,0 0,-14 20,20 -20,20 0,-14 -24,0 0,24 14,0 -20,20 z"
                        style="fill:#000000;fill-opacity:1;fill-rule:evenodd;stroke:none"/>
            </g>
        </symbol>
        <symbol id="scale">
            <g transform="scale(-0.15,0.15) translate(-115,-5)">
                <path
                        transform="matrix(0.8,0,0,-0.8,0,217)"
                        d="M 34.90625 151.15625 L 34.90625 186.53125 L 47.1875 174.25 L 106.8125 233.84375 L 94.4375 246.21875 L 129.78125 246.21875 L 129.78125 210.875 L 117.40625 223.25 L 57.8125 163.625 L 70.28125 151.15625 L 34.90625 151.15625 z"
                        style="fill:#000000;fill-opacity:1;fill-rule:evenodd;stroke:none"/>
            </g>
        </symbol>
        <symbol id="scale">
            <circle cx="7.5" cy="7.5" r="7" fill="red"/>
        </symbol>
        <symbol id="remove">
            <g transform="scale(0.13,-0.13) translate(-105,-225)">
                <path
                        d="m 203.40644,201.82612 q 0,1.83986 -1.34048,3.18032 -1.34046,1.34049 -3.18032,1.34049 l -22.39369,0 q 0,3.73226 -2.62837,6.33435 -2.62838,2.60209 -6.30808,2.60209 h -9.0416 q -3.67972,0 -6.30808,-2.60209 -2.62836,-2.60209 -2.62836,-6.33435 h -22.39372 q -1.83983,0 -3.18032,-1.34049 -1.34046,-1.34046 -1.34046,-3.18032 0,-1.83987 1.34046,-3.12776 1.34049,-1.2879 3.18032,-1.2879 h 71.7019 q 1.83986,0 3.18032,1.2879 1.34048,1.28789 1.34048,3.12776 z m -8.93646,-76.22268 v 67.28624 H 131.5994 v -67.28624 q 0,-3.67972 2.65466,-6.30809 2.65465,-2.62837 6.38693,-2.62837 h 44.78742 q 3.73227,0 6.38692,2.62837 2.65465,2.62837 2.65465,6.30809 z m -9.04157,2.26038 q 0,-0.99877 -0.63082,-1.62958 -0.6308,-0.6308 -1.52446,-0.6308 -0.99877,0 -1.62958,0.6308 -0.6308,0.63081 -0.6308,1.62958 v 53.82899 q 0,0.94621 0.65708,1.6033 0.65709,0.6571 1.6033,0.6571 0.89366,0 1.52446,-0.68336 0.63082,-0.6834 0.63082,-1.57704 v -53.82899 z m -13.45725,0 q 0,-0.99877 -0.63082,-1.62958 -0.6308,-0.6308 -1.52446,-0.6308 -0.99877,0 -1.62958,0.6308 -0.6308,0.63081 -0.6308,1.62958 v 53.82899 q 0,0.94621 0.6571,1.6033 0.65707,0.6571 1.60328,0.6571 0.89366,0 1.52446,-0.68336 0.63082,-0.6834 0.63082,-1.57704 v -53.82899 z m 0,78.48311 h -17.87291 q 0,1.83984 1.28789,3.18033 1.28791,1.34045 3.12776,1.34045 h 9.0416 q 1.83984,0 3.12776,-1.34045 1.2879,-1.34049 1.2879,-3.18033 z M 158.5139,127.86382 q 0,-0.99877 -0.6308,-1.62958 -0.63082,-0.6308 -1.52444,-0.6308 -0.9988,0 -1.6296,0.6308 -0.63081,0.63081 -0.63081,1.62958 v 53.82899 q 0,0.94621 0.65709,1.6033 0.6571,0.6571 1.60332,0.6571 0.89362,0 1.52444,-0.68336 0.6308,-0.6834 0.6308,-1.57704 v -53.82899 z m -13.45725,0 q 0,-0.99877 -0.6308,-1.62958 -0.6308,-0.6308 -1.52444,-0.6308 -0.99879,0 -1.62959,0.6308 -0.63083,0.63081 -0.63083,1.62958 v 53.82899 q 0,0.94621 0.6571,1.6033 0.6571,0.6571 1.60332,0.6571 0.89364,0 1.52444,-0.68336 0.6308,-0.6834 0.6308,-1.57704 v -53.82899 z"
                        style="fill:#000000;fill-opacity:1;fill-rule:evenodd;stroke:none"/>
            </g>
        </symbol>
        <symbol id="info">
            <g transform="matrix(0.05,0,0,0.05,-2.5360554,-11.307373)">
                <path
                        d="m 288.60126,391.17517 c 0,60.29836 -48.88148,109.17984 -109.17984,109.17984 -60.29836,0 -109.179843,-48.88148 -109.179843,-109.17984 0,-60.29836 48.881483,-109.17984 109.179843,-109.17984 60.29836,0 109.17984,48.88148 109.17984,109.17984 z"
                        style="fill:#ffff00;fill-opacity:1;stroke:none"/>
                <g
                        style="font-size:40px;fill:#c83737;fill-opacity:1;stroke:none;font-family:Sans"
                        transform="translate(58.789145,-23.668356)">
                    <path
                            style="fill:#c83737;"
                            d="m 138.00654,422.52995 0,31.51742 c -5e-5,8.08142 0.0808,12.84942 0.24244,14.30406 0.80809,7.27326 2.99007,10.90989 6.54593,10.90987 0.80809,2e-5 2.82843,-0.40405 6.06104,-1.21221 0.80807,-0.32324 2.02028,-0.48486 3.63663,-0.48488 6.14178,2e-5 9.21271,2.66688 9.21278,8.00058 -7e-5,2.26278 -1.05065,4.20232 -3.15174,5.8186 -1.9396,1.61627 -4.44483,2.42441 -7.51569,2.42441 -2.58612,0 -6.54598,-0.32325 -11.87965,-0.96976 -5.17214,-0.80814 -9.0512,-1.21221 -11.6372,-1.21221 -4.20235,0 -8.88956,0.32325 -14.06162,0.96976 -6.3035,0.80814 -10.50582,1.21221 -12.60696,1.21221 -6.465107,0 -9.697667,-2.74767 -9.697667,-8.24301 0,-5.3337 2.74767,-8.00056 8.243017,-8.00058 1.293,2e-5 3.15172,0.24246 5.57616,0.72732 2.58602,0.4849 4.52556,0.72735 5.8186,0.72733 3.87903,2e-5 6.22263,-5.17207 7.03081,-15.51627 -4e-5,-0.64648 -4e-5,-7.67728 0,-21.09242 l 0,-19.88022 c -4e-5,-13.41502 -4e-5,-20.44583 0,-21.09243 -0.80818,-10.18245 -3.23259,-15.27372 -7.27326,-15.27382 -1.29303,10e-5 -3.15175,0.32335 -5.57615,0.96976 -2.26281,0.48499 -3.9599,0.72743 -5.09128,0.72733 -5.818597,10e-5 -8.727897,-2.58595 -8.727897,-7.75814 0,-5.49522 3.55581,-8.2429 10.667427,-8.24301 3.07092,1.1e-4 5.25289,0.081 6.54593,0.24244 5.17206,0.64663 8.48542,0.96988 9.94011,0.96976 1.29299,1.2e-4 3.23252,-0.16146 5.8186,-0.48488 2.74764,-0.48476 4.76798,-0.72721 6.06104,-0.72732 4.68716,1.1e-4 7.03076,3.15186 7.03081,9.45522 -5e-5,0.64663 -0.0808,1.61638 -0.24244,2.9093 -0.16163,1.29313 -0.24249,2.26289 -0.24244,2.9093 -0.16163,1.29313 -0.32331,6.30359 -0.48489,15.03139 -0.16162,6.62682 -0.24249,13.41519 -0.24244,20.3651 m -12.60697,-63.51972 c -3.71747,1.3e-4 -6.95002,-1.29289 -9.69766,-3.87907 -2.58606,-2.74754 -3.87909,-5.98009 -3.87907,-9.69767 -2e-5,-3.71729 1.29301,-6.86903 3.87907,-9.45522 2.74764,-2.5859 5.98019,-3.87892 9.69766,-3.87907 3.71741,1.5e-4 6.86913,1.29317 9.45523,3.87907 2.74762,2.58619 4.12146,5.73793 4.12151,9.45522 -5e-5,3.71758 -1.37389,6.95013 -4.12151,9.69767 -2.5861,2.58618 -5.73782,3.8792 -9.45523,3.87907"/>
                </g>
                <path
                        d="m 183.98723,272 c -65.70276,0 -119.156254,53.48474 -119.156254,119.1875 0,65.70276 53.453494,119.15625 119.156254,119.15625 65.70276,0 119.1875,-53.45349 119.1875,-119.15625 C 303.17473,325.48474 249.68999,272 183.98723,272 z m 0,20 c 54.89396,0 99.1875,44.29354 99.1875,99.1875 0,54.89396 -44.29354,99.15625 -99.1875,99.15625 -54.89396,0 -99.156254,-44.26229 -99.156254,-99.15625 0,-54.89396 44.262294,-99.1875 99.156254,-99.1875 z"
                        style="fill:#c83737;stroke:none;"/>
            </g>

        </symbol>
    </defs>

    <rect x="0" y="0" width="10" height="10" fill="none" stroke="black"/>

    <!--<use xlink:href="#info"/>-->
    <use xlink:href="#move"/>
</svg>