<?xml version="1.0" encoding="utf-8"?>
<!-- Generator: Adobe Illustrator 21.0.2, SVG Export Plug-In . SVG Version: 6.00 Build 0)  -->
<svg version="1.1" id="Ebene_3" xmlns="http://www.w3.org/2000/svg" xmlns:xlink="http://www.w3.org/1999/xlink" x="0px" y="0px"
	 viewBox="0 0 749.3 622.6" style="enable-background:new 0 0 749.3 622.6;" xml:space="preserve">
<g>
	<path d="M375,622.6c-0.1,0-0.3,0-0.4,0c-0.9,0.1-1.8-0.1-2.6-0.6c-0.6-0.3-1.1-0.8-1.4-1.3c-13.5-8.1-87.9-53.2-165.9-114.8
		c-46.9-37-86.3-73-117-107C49.3,356.6,24.2,317.2,13,281.7C-15,193,7.5,129.7,31.3,92.2c15.5-24.5,36.8-45.7,61.4-61.5
		C116.1,15.7,142,6,167.6,2.5C225.3-5.2,277.4,4.7,322.4,32c27.7,16.8,44.8,35.6,52.2,44.7c7.4-9.1,24.5-27.9,52.2-44.7
		C471.9,4.7,524-5.2,581.7,2.5c25.6,3.4,51.5,13.2,74.9,28.2c24.6,15.8,45.8,37,61.4,61.5c23.8,37.5,46.3,100.8,18.3,189.4
		c-11.2,35.5-36.3,74.9-74.7,117.3c-30.8,34-70.1,69.9-117,107c-78,61.6-152.4,106.7-165.9,114.8c-0.4,0.5-0.9,1-1.4,1.3
		C376.6,622.4,375.8,622.6,375,622.6z"/>
</g>
</svg>
