<svg height="100" id="Ebene_3" preserveAspectRatio="none" style="enable-background:new 0 0 743 738.2;" version="1.1" viewBox="0 0 743 738.2" width="100" x="0px" xml:space="preserve" xmlns="http://www.w3.org/2000/svg" xmlns:xlink="http://www.w3.org/1999/xlink" y="0px">
<style type="text/css">
	.st0{fill:#010202;}
</style>
<g>
	<path class="st0" d="M136,161.9c1-0.1,1.6-1.1,1.2-2c-3.1-8-10.4-21.7-8.2-29.4c0.9-3.1,22.4,18.3,33.3,25.7c1.4,0.9,3-0.8,1.9-2.1   c-7.8-9.4-20.7-21.4-22.3-31.7c-0.2-1.4,13.4,11.7,22.1,20.1c1.1,1.1,2.9-0.1,2.3-1.5h0c-0.5-1.4,1.2-2.6,2.3-1.6   c4.2,3.9,9.4,13.3,12.9,13.8s7.5-1.6,8.4-7.5c0.9-5.9-24.5-33.2-22-38.5c2.6-5.3,15.5,13.8,20.1,21.5c0.7,1.1,2.4,0.8,2.6-0.5   c1.3-8.9,9.9-11.7,18.2-8.8c1.1,0.4,2.1-0.6,1.8-1.7c-2.4-9.2-6.1-22.6-1.5-30.8c0.7-1.8,2.1-2.6,4.2-2.3c0.3,0,0.5,0.2,0.7,0.3   c4.4,3.8,7.6,4.4,9.6,1.9c3-3.6,8.4-4,11.7-0.7c6.6,6.6,15.1,15.2,19.5,16.7c8.4,2.9,11.8-6,20-0.5c0.9,0.6,2.1,0,2.2-1.1   c1.2-13.5-11.3-20.1-3.9-36.5c9.6-21.2,10.8-9.1,15.3-29c1.2-5.3-7-13.7-5.4-19.6c0.1-0.5,0.5-0.8,0.9-1   c3.7-1.1,22.8-10.3,25.3-11.7c0.2-0.1,0.5-0.2,0.7-0.2c23.2-0.2,14.3,32.4,25.4,33.4c3.3,0.3,20-10.6,26.8-1.6   c3.8,5.1-3.8,27.8,3.1,29.6c4.6,1.2,9.2-11.5,13.1-11.1c9.7,1.1,5.9,24.7,18.5,26.3c3.7,0.5,23.9-14.6,30.4-15.2   c1.1-0.1,1.9,1.1,1.4,2c-0.8,1.6-1.1,3.3-1.1,5c0,0.8,0.8,1.5,1.6,1.4c6.6-0.9,16.5-15.9,22.3-18.2c19.1-7.7,8.4-6.7,21.4,5.1   c5.2,4.7,0.4,7.3,8.5,11.9c4.3,2.5,8.2-6.7,15.7-6.7s-34.4,52.1-22.3,59.1s35.6-48.5,46.1-58.4c1-1,2.7,0,2.4,1.4   c-2.1,8.8-5.4,36.2-6.5,45.4c-0.1,1.1,1,2,2,1.5c4.5-2.2,8.1,1,12.1-0.3c2.1-0.6,15-11.8,19.8-17.3c0.8-0.9,2.2-0.2,2,1   c-1.4,7.2-7.6,22.1-8.4,24.6c-5.3,16.4-3.4,12.2-0.9,26c3.4,18.9,17.4,31.1,37,16.3c0.9-0.7,0.7-2.1-0.4-2.5   c-3.5-1.3-7.1-3-7.4-7.1c0-0.8,0.5-1.4,1.2-1.5c4.8-0.7,17.9-3.3,20.4-1c6.9,6.4-15.4,49.4-15.1,57.6c0.9,29.9,19.5-4.7,37.7-6.9   c9.2-1.1,17.6,5.8,24.8,5.9c8.5,0.1,16.5-5.6,25.5-5.4c12.5,0.3,15.3,4.6,26.1,10.2c0.1,0,0.2,0.1,0.2,0.2   c1.5,1.3-5.1,27.4-9.2,37.8c-3,7.6-5.3,13.6-2.8,20.8c0.1,0.4,0.4,0.7,0.7,0.8c0.6,0.3,1.5,1,1.4,1.2c-1.1,6.9-22,8.1-23.6,15.8   c-0.3,1.6,13,37.1,9.2,42.9c-0.4,0.6-0.2,1.5,0.4,1.9c9.5,6.7,14.4,18,23,26c9.6,8.9,19.1,14.4,26.6,24c6,7.7,18,18.2,17.9,32.1   c-0.2,17.9-18.3,23.3-31.2,33.9c-0.6,0.5-0.7,1.5-0.1,2.1c1.8,1.8,5,5.1,4.4,6.1c-4.5,7.8-9.4-6.4-12.3,3.8c0,0.1-0.1,0.3-0.2,0.4   c-6.8,10.2-24.1,29.4-22.3,41.9c1.5,10.1,13.2,2.9,10.5,16.2c-2.1,10.3-19.3,17.2-20.6,27.5c-0.9,6.7,12.2,12,5.9,21   c-3,4.3-17.1,2-21,4c-2.4,1.2-2.1,4.6-4.6,6.3c-8.8,5.9-18,12.4-16.2,20.9c0.6,2.6,20.7,13.3,18.1,14.8c-28.8,17-38.4-23.5-55,19.7   c-8.9,23.1-5.6,39.2-31.6,40.8c-9.2,0.6-28.4-0.9-37.1-4.4c-5-2-14.5-14.7-19.6-14.6c-15.9,0,2,5.6-9,15c-4.7,4-22.7-12.9-32.6-6.6   c-8.4,5.3-2.4,24.4-13.9,28c-0.7,0.2-1.4-0.1-1.7-0.7l-1.1-2.4c-0.6-1.2-2.3-1-2.7,0.2c-1.4,4.6-3,9.1-3.6,13.8   c-0.1,0.5-0.4,0.9-0.8,1.1c-13.2,5.7,9.6,28.6-24.2,17.5c-19.3-6.3-16.7-23.3-24.9-44.4c-0.6-1.5-2.8-1.1-2.8,0.5   c0.1,3.9,2.3,8.3,2.3,12.1c0,3.8-15.3-2.1-21.2-4.6c-1-0.4-2.1,0.4-2,1.5c1.4,10.3,10.9,42.3,8.4,44.8   c-6.3,6.3-20.8-13.5-26.4-23.9c-0.5-1-2-0.7-2.2,0.4c-1.2,8.8-9.9,8.4-16,16.8c-3.2,4.4-5.3-11-5.1-9.4c-1.6-9.6,8.9-29,11.5-39.5   c0.2-0.9-0.5-1.8-1.4-1.8c-8.1,0.4-15.9-2.2-21.6-7.9c-0.7-0.7-2-0.5-2.4,0.4c-3.3,7.9-8.2,27.3-13.3,28.9c-5.1,1.6-1.7-6.8-2-10.3   c-0.1-1.5-2.1-1.8-2.7-0.5c-2.1,4.3-4.5,10.4-7,12.8c-0.8,0.8-2.1,0.3-2.4-0.7c-0.8-3.9-2.9-13.4-4.3-20.3c-0.3-1.6-2.5-1.5-2.8,0   c-1.5,9.3-3.8,23.6-5.8,29.5c-0.3,1,0.5,2,1.6,1.8c2.6-0.5,5.3-0.3,7.3,2c0.4,0.5,0.4,1.2,0,1.8c-19.7,26.2-21.1-10-24.7-26.8   c-0.3-1.2-1.8-1.5-2.5-0.5c-14.3,19-15.8-13.8-22.6-22.2c-10.8-13.3-26-11.3-37.4-21.8c-3.8-3.6-7.5-18-9.7-19.1   c-17.4-8.9-38.1,29.8-44.6,23.4c-6.6-6.4,24.6-30.4,22.3-34.4s-20,14-23.1,16.8c-0.3,0.3-0.8,0.4-1.2,0.4c-3.3-0.5-4.8-4-6.8-6.2   c-8.7-9.9,2.8-29-3.4-40.2c-0.5-0.8-1.6-1-2.3-0.3c-3.4,3.5-6.7,7-10.1,10.5c-0.7,0.7-1.8,0.5-2.3-0.3c-1.7-3.4-5.5-10.5-6.7-12.2   c-0.3-0.4-0.4-0.9-0.2-1.4c1.6-4,10.7-10.2,16.4-14.3c1.2-0.8,0.5-2.7-0.9-2.6c-6.4,0.4-16.7,0.4-21.6-0.8   c-1.1-0.3-1.4-1.7-0.6-2.4c2.4-2.2,6.6-6.8,9.4-10.1c0.9-1-0.1-2.6-1.4-2.3c-13.3,2.9-44.1,4.3-25.5-17.9c0.6-0.7,0.4-1.9-0.5-2.2   c-7.5-2.9-44.3,28.9-51.3,22.1c-7-6.8,24.9-36.6,28.6-47.3c0.3-0.9-0.3-1.9-1.3-1.9c-9.9-0.4-27.1,2.1-34.5-3.7   c-5.3-4.1,21.6-14.3,22.9-14.7c1-0.3-23.4,0.3-25.6-0.3c-10-2.4,18-11.2,22.4-10.5c0.5,0.1-11.7-34.4,5.9-50.2   c0.8-0.8,0.5-2.1-0.6-2.4c-7.8-2.1-26.7-5.8-27.4-10.1c-0.4-2.4,10.6-6.1,17.9-9.3c1.5-0.6,0.9-2.8-0.6-2.7   c-15.9,0.7-35,6.7-29.2-13c3.1-10.6,18.5-14.8,22.6-25c3.7-9.1-8.4-13.9-7.3-17.5c0.3-1.2,17.8,0.7,29.5,2.5   c1.6,0.2,2.3-1.9,0.9-2.7C39,332.6,15,320.1,15.5,317c0.2-1.4,36.8,5.3,32.6-1.9c-4.2-7.2-14.3-7-23.2-15.8   c-1.3-1.2,0.4-3.2,1.8-2.2c4.8,3.4,9.8,6.1,13.8,2.8c1.5-1.2-9.7-3.1-7.9-6.8c1.8-3.7,19.1,7.5,18.8,4.4   c-0.3-4.1,2.2-20.1,4.7-24.6c0.4-0.7,1.1-0.9,1.8-0.6c2.7,1.2,5.3,2.7,7.7,4.5c0.5,0.4,1.2,0.3,1.6-0.2c0,0,0,0,0,0   c0.4-0.5,0.3-1.1-0.1-1.6c-17.9-17.2,27.1-16.8,27.7-33.4c0.5-14.3-34.8-15.7-32.5-28.1c2.9-15.4,26.8,4.7,35.5,7.5   c0.5,0.2,1.1,0,1.5-0.4c5.1-6,8.5-2.1,8-10.6c-0.6-8.5-11.9-24.2-11.1-28.6c2.2-11.9,15.2-14.7,24.7-17.3   C125.7,162.9,130.9,162.2,136,161.9z"/>
</g>
</svg>