<svg height="100" id="Ebene_3" preserveAspectRatio="none" style="enable-background:new 0 0 793.7 793.7;" version="1.1" viewBox="0 0 793.7 793.7" width="100" x="0px" xml:space="preserve" xmlns="http://www.w3.org/2000/svg" xmlns:xlink="http://www.w3.org/1999/xlink" y="0px">
<style type="text/css">
	.st0{fill:#010202;}
</style>
<path class="st0" d="M771,537.3C771,666.9,665.9,772,536.3,772c-52.8,0-101.6-17.5-140.8-46.9c-39.2,29.5-88,46.9-140.8,46.9  C125.1,772,20,666.9,20,537.3c0-52.9,17.5-101.7,47-141c-29.5-39.3-47-88.1-47-141C20,125.8,125.1,20.7,254.7,20.7  c52.8,0,101.6,17.5,140.8,46.9c39.2-29.5,88-46.9,140.8-46.9C665.9,20.7,771,125.8,771,255.4c0,52.9-17.5,101.7-47,141  C753.5,435.6,771,484.4,771,537.3z"/>
</svg>