<?xml version="1.0" encoding="utf-8"?>
<!-- Generator: Adobe Illustrator 21.0.2, SVG Export Plug-In . SVG Version: 6.00 Build 0)  -->
<svg version="1.1" id="Ebene_3" xmlns="http://www.w3.org/2000/svg" xmlns:xlink="http://www.w3.org/1999/xlink" x="0px" y="0px"
	 viewBox="0 0 752 753" style="enable-background:new 0 0 752 753;" xml:space="preserve">
<style type="text/css">
	.st0{fill:#010202;}
</style>
<path class="st0" d="M752,518.3C752,647.9,646.9,753,517.3,753c-52.8,0-101.6-17.5-140.8-46.9c-39.2,29.5-88,46.9-140.8,46.9
	C106.1,753,1,647.9,1,518.3c0-52.9,17.5-101.7,47-141c-29.5-39.3-47-88.1-47-141C1,106.8,106.1,1.7,235.7,1.7
	c52.8,0,101.6,17.5,140.8,46.9c39.2-29.5,88-46.9,140.8-46.9C646.9,1.7,752,106.8,752,236.4c0,52.9-17.5,101.7-47,141
	C734.5,416.6,752,465.4,752,518.3z"/>
</svg>
