<svg height="100" id="Ebene_2" preserveAspectRatio="none" style="enable-background:new 0 0 573.2 722.8;" version="1.1" viewBox="0 0 573.2 722.8" width="100" x="0px" xml:space="preserve" xmlns="http://www.w3.org/2000/svg" xmlns:xlink="http://www.w3.org/1999/xlink" y="0px">
<style type="text/css">
	.st0{fill:#010202;}
</style>
<path class="st0" d="M547.2,582.5c-17.3,31-40.3,57-68.8,78c-28.5,21.1-61,36.7-97.6,46.9c-36.6,10.2-73.7,15.3-111.5,15.3  c-44.6,0-90.7-5.7-138.4-17.2c-47.7-11.5-91.4-27.1-131-46.9l78-197.9l13,10.2c22.9,18,47.7,33.1,74.3,45.5  c26.6,12.4,54.8,18.6,84.5,18.6c6.2,0,13.2-0.6,20.9-1.9c7.7-1.2,14.9-3.6,21.4-7c6.5-3.4,11.9-7.7,16.3-13c4.3-5.3,6.5-11.9,6.5-20  c0-8-1.9-14.4-5.6-19c-3.7-4.6-8.4-8.2-13.9-10.7c-5.6-2.5-11.8-4.3-18.6-5.6c-6.8-1.2-13-2.5-18.6-3.7l-51.1-9.3  c-24.8-4.3-48.3-11.3-70.6-20.9c-22.3-9.6-41.8-22.1-58.5-37.6c-16.7-15.5-29.9-33.8-39.5-54.8c-9.6-21-14.4-45.2-14.4-72.5  c0-41.5,8.7-78.3,26-110.6c17.3-32.2,40.3-59.3,68.8-81.3c28.5-22,60.9-38.7,97.1-50.2C252.2,5.7,289.6,0,328,0  C408.5,0,482.5,20.4,550,61.3l-68.8,179.3c-21.7-14.9-44.8-27.4-69.2-37.6c-24.5-10.2-50.6-15.3-78.5-15.3c-5.6,0-11.6,0.6-18.1,1.9  c-6.5,1.2-12.4,3.3-17.7,6c-5.3,2.8-9.8,6.5-13.5,11.1c-3.7,4.6-5.6,10.7-5.6,18.1c0,6.8,1.7,12.1,5.1,15.8c3.4,3.7,7.7,6.8,13,9.3  c5.3,2.5,10.8,4.3,16.7,5.6c5.9,1.2,11.3,2.5,16.3,3.7l57.6,13c26.6,6.2,51.4,14.6,74.3,25.1c22.9,10.5,42.6,23.9,59,40  c16.4,16.1,29.3,35.3,38.6,57.6c9.3,22.3,13.9,48.3,13.9,78C573.2,515,564.6,551.6,547.2,582.5z"/>
</svg>