<?xml version="1.0" encoding="utf-8"?>
<!-- Generator: Adobe Illustrator 21.0.2, SVG Export Plug-In . SVG Version: 6.00 Build 0)  -->
<svg version="1.1" id="Ebene_1_Kopie" xmlns="http://www.w3.org/2000/svg" xmlns:xlink="http://www.w3.org/1999/xlink" x="0px"
	 y="0px" viewBox="0 0 751.9 716.3" style="enable-background:new 0 0 751.9 716.3;" xml:space="preserve">
<style type="text/css">
	.st0{fill:#010202;}
</style>
<path class="st0" d="M592.7,713.8l-209.3-152c-4.5-3.3-10.6-3.3-15.1,0l-209.3,152c-10.1,7.3-23.6-2.5-19.8-14.4l79.9-246
	c1.7-5.3-0.2-11.1-4.7-14.4L5.3,287c-10.1-7.3-4.9-23.2,7.6-23.2h258.7c5.6,0,10.5-3.6,12.2-8.9l79.9-246c3.8-11.8,20.6-11.8,24.4,0
	l79.9,246c1.7,5.3,6.7,8.9,12.2,8.9H739c12.5,0,17.6,15.9,7.6,23.2l-209.3,152c-4.5,3.3-6.4,9.1-4.7,14.4l79.9,246
	C616.4,711.3,602.8,721.1,592.7,713.8z"/>
</svg>
