<?xml version="1.0" encoding="utf-8"?>
<!-- Generator: Adobe Illustrator 20.1.0, SVG Export Plug-In . SVG Version: 6.00 Build 0)  -->
<!DOCTYPE svg PUBLIC "-//W3C//DTD SVG 1.1//EN" "http://www.w3.org/Graphics/SVG/1.1/DTD/svg11.dtd">
<svg version="1.1" id="Ebene_1_Kopie" xmlns="http://www.w3.org/2000/svg" xmlns:xlink="http://www.w3.org/1999/xlink" x="0px"
	 y="0px" width="793.7" height="793.7" viewBox="0 0 793.7 793.7" style="enable-background:new 0 0 793.7 793.7;" xml:space="preserve">
<style type="text/css">
	.st0{fill:#010202;}
</style>
<path class="st0" d="M613.7,758.9l-209.3-152c-4.5-3.3-10.6-3.3-15.1,0L180,758.9c-10.1,7.3-23.6-2.5-19.8-14.4l79.9-246
	c1.7-5.3-0.2-11.1-4.7-14.4l-209.3-152c-10.1-7.3-4.9-23.2,7.6-23.2h258.7c5.6,0,10.5-3.6,12.2-8.9l79.9-246
	c3.8-11.8,20.6-11.8,24.4,0L489,300c1.7,5.3,6.7,8.9,12.2,8.9h258.7c12.5,0,17.6,15.9,7.6,23.2l-209.3,152
	c-4.5,3.3-6.4,9.1-4.7,14.4l79.9,246C637.3,756.4,623.7,766.2,613.7,758.9z"/>
</svg>
